<svg xmlns="http://www.w3.org/2000/svg" width="436" height="259" viewBox="0 0 436 259" fill="none">
  <path d="M395 1C416.388 1.02008 586.697 295.555 2.39407 250.511M395.986 2.65799C417.206 -0.588235 584.459 297.96 3.51665 249.909M1.16797 251.238C3.82457 249.61 6.72362 246.499 8.00173 244.745M2.34669 250.725C3.8379 249.546 5.58479 248.038 8.35919 245.535M1.21923 250.428C3.39346 252.783 4.9941 254.64 7.49584 257.721M1.92283 250.771C3.42272 252.957 5.08929 254.264 7.70509 257.403M7.4876 245.724C8.76004 247.243 8.63564 250.817 8.60132 257.088M8.57983 245.392C8.69541 248.694 7.60295 250.422 8.06503 257.486M8.90035 246.072C7.56808 247.74 5.23575 249.558 4.51594 251.498M8.49286 245.524C7.78199 246.478 7.34198 248.042 5.24969 251.294M4.44853 251.584C5.82632 252.365 6.74682 254.848 7.24841 258.094M5.1057 250.898C5.89403 253.489 6.45972 255.789 7.31488 257.379" stroke="#E73725" stroke-width="2" stroke-dasharray="0"/>
</svg>