<svg xmlns="http://www.w3.org/2000/svg" width="357" height="83" viewBox="0 0 357 83" fill="none">
  <path d="M1.50006 1C0.843448 40.5235 311.623 41.5446 353.19 79.5316M3.01295 1.27172C1.18008 43.1995 309.486 39.1803 353.921 79.5216M355.215 81.1224C352.64 80.8992 349.263 81.4265 346.311 81.161M355.085 80.951C352.709 80.9368 350.342 81.6783 346.357 81.7082M354.262 81.2891C354.107 78.7304 353.959 76.9243 354.112 72.4292M355.125 80.9983C355.09 79.146 355.056 77.0838 354.456 72.4344M346.475 81.7841C348.718 79.6128 349.823 76.7431 354.381 72.9594M347.052 81.6547C347.867 79.7124 350.361 78.0726 355.022 71.9327M346.319 81.1375C348.332 81.1945 351.32 79.976 352.334 79.1574M346.396 81.3636C348.891 80.5355 351.044 79.64 352.649 79.2261M352.954 78.8809C353.294 76.6442 354.396 74.8245 353.996 72.653M353.004 79.0621C353.147 76.9847 354.003 74.9988 354.352 72.5041" stroke="#E73725" stroke-width="2" stroke-dasharray="0"/>
</svg>