<svg xmlns="http://www.w3.org/2000/svg" width="16" height="47" viewBox="0 0 16 47" fill="none">
  <path d="M7.07498 0.10083C7.68997 13.6665 9.08538 28.4513 7.09949 44.3882M7.04361 0.877703C9.16598 11.4564 7.59447 22.7496 7.13285 45.7043M8.01686 44.994C5.29635 43.2855 3.50538 40.9697 1.97329 38.6298M7.67455 45.0079C6.39383 43.4556 3.84916 41.1479 1.92844 39.3663M7.85852 44.7796C10.7735 42.2943 12.0465 40.4996 14.1711 39.7346M7.93802 45.3174C9.87887 43.6104 11.9285 41.526 14.3761 38.9694M1.34375 40.139C5.63371 39.3896 7.70728 38.7756 13.1928 37.9034M2.5478 38.9052C5.23935 38.9709 8.38987 38.7108 13.7039 39.0947M1.55569 38.352C3.32715 40.2602 4.35447 39.9092 8.39085 42.0255M2.24227 39.0724C3.34156 39.8061 5.20345 40.3195 8.07153 42.2845M8.25136 42.3324C10.0171 40.5151 10.7967 39.8154 13.5393 39.0705M7.6916 41.7019C10.3402 40.9855 12.5451 39.8683 14.2005 38.9084" stroke="#E73725" stroke-width="2" stroke-dasharray="0"/>
</svg>