<svg width="402" height="283" viewBox="0 0 402 283" fill="none" xmlns="http://www.w3.org/2000/svg">
<path d="M395.812 1.23378C439.165 382.663 17.8784 270.963 2.71989 249.975M396.82 1C441.748 382.473 21.051 272.163 3.3133 249.574M1.50466 250.959C3.21769 250.667 5.7306 252.345 10.5004 251.617M1.82142 251.424C4.37348 250.99 6.74698 251.616 10.0014 251.728M1.33093 250.549C2.4752 253.33 2.17492 255.317 1.39843 259.733M2.03673 251.241C1.52236 253.687 1.66017 256.377 1.72011 260.04M10.8328 251.548C8.32577 252.713 6.89309 254.967 1.15805 258.655M9.74625 252.114C6.45952 255.152 3.65908 257.774 1.6169 259.946M10.1008 252.362C7.97834 252.667 5.21049 252.977 3.24862 253.901M10.0144 251.825C8.02344 252.421 5.785 253.1 3.54611 253.264M3.35399 253.775C3.7005 255.007 3.08982 256.315 1.68598 259.298M3.62573 253.487C2.9051 255.372 2.41156 257.272 1 259.474" stroke="#E73725" stroke-width="2" stroke-dasharray="0"/>
</svg>
