<svg xmlns="http://www.w3.org/2000/svg" width="401" height="285" viewBox="0 0 401 285" fill="none">
  <path d="M4.62872 1.99983C-42.1803 384.242 379 273.238 397.571 253.035" stroke="#E73725" stroke-width="2" fill="none"/>
  <path d="M5.85342 0.398926C-38.1606 382.669 381.163 273.212 397.247 252.393" stroke="#E73725" stroke-width="2" fill="none"/>
  <path d="M398.798 260.236C398.216 257.041 398.216 254.678 398.121 252.398" stroke="#E73725" stroke-width="2" fill="none"/>
  <path d="M398.811 260.476C398.763 256.361 399.126 253.939 398.391 252.048" stroke="#E73725" stroke-width="2" fill="none"/>
  <path d="M389.71 252.793C394.352 252.129 396.231 251.807 398.933 252.043" stroke="#E73725" stroke-width="2" fill="none"/>
  <path d="M389.964 252.522C392.03 252.055 395.589 252.429 398.904 251.957" stroke="#E73725" stroke-width="2" fill="none"/>
  <path d="M390.114 252.043C391.813 255.036 394.991 257.935 399.966 260.822" stroke="#E73725" stroke-width="2" fill="none"/>
  <path d="M389.694 252.108C393.619 255.259 396.004 258.02 399.097 260.298" stroke="#E73725" stroke-width="2" fill="none"/>
  <path d="M396.839 253.981C398.612 258.162 398.496 259.416 399.576 260.188" stroke="#E73725" stroke-width="2" fill="none"/>
  <path d="M396.624 254.237C397.772 256.705 398.497 258.926 399.424 260.236" stroke="#E73725" stroke-width="2" fill="none"/>
  <path d="M389.882 252.848C393.29 253.492 395.915 254.133 397.058 254.88" stroke="#E73725" stroke-width="2" fill="none"/>
  <path d="M390.441 252.226C392.734 252.963 394.76 253.624 396.398 254.199" stroke="#E73725" stroke-width="2" fill="none"/>
</svg>
